<svg width="151" height="55" viewBox="0 0 151 55" fill="none" xmlns="http://www.w3.org/2000/svg">
<rect x="0.668335" y="0.873047" width="149" height="53" rx="19.5" stroke="#CDC3C3"/>
<path fill-rule="evenodd" clip-rule="evenodd" d="M37.9656 26.8794C37.9875 25.183 38.8769 23.6159 40.3222 22.7274C39.4063 21.4193 37.9272 20.6196 36.331 20.5697C34.6518 20.3934 33.0239 21.5745 32.1681 21.5745C31.2959 21.5745 29.9784 20.5872 28.5596 20.6164C26.693 20.6767 24.9949 21.7123 24.0867 23.3443C22.1527 26.6927 23.5953 31.6137 25.4479 34.3203C26.3748 35.6457 27.4581 37.1261 28.8756 37.0736C30.2626 37.0161 30.7807 36.1891 32.455 36.1891C34.1137 36.1891 34.5997 37.0736 36.046 37.0403C37.5343 37.0161 38.4721 35.709 39.3665 34.3711C40.0324 33.4268 40.5449 32.383 40.8849 31.2786C39.1171 30.5309 37.9677 28.7988 37.9656 26.8794Z" fill="black"/>
<path fill-rule="evenodd" clip-rule="evenodd" d="M35.234 18.7897C36.0455 17.8155 36.4453 16.5633 36.3485 15.2991C35.1087 15.4293 33.9634 16.0219 33.1409 16.9587C32.3288 17.883 31.9173 19.0922 31.9972 20.3201C33.2537 20.333 34.4467 19.769 35.234 18.7897Z" fill="black"/>
<path d="M53.7538 20.079V15.093H55.1938C55.5898 15.093 55.9228 15.15 56.1928 15.264C56.4628 15.372 56.6818 15.534 56.8498 15.75C57.0238 15.96 57.1468 16.218 57.2188 16.524C57.2968 16.824 57.3358 17.166 57.3358 17.55C57.3358 17.946 57.2938 18.285 57.2098 18.567C57.1318 18.843 57.0298 19.074 56.9038 19.26C56.7778 19.446 56.6338 19.593 56.4718 19.701C56.3158 19.809 56.1568 19.893 55.9948 19.953C55.8328 20.007 55.6798 20.043 55.5358 20.061C55.3918 20.073 55.2718 20.079 55.1758 20.079H53.7538ZM52.8988 14.373V20.799H55.1038C55.6378 20.799 56.0998 20.724 56.4898 20.574C56.8798 20.424 57.2008 20.208 57.4528 19.926C57.7048 19.638 57.8908 19.287 58.0108 18.873C58.1308 18.453 58.1908 17.973 58.1908 17.433C58.1908 16.401 57.9238 15.633 57.3898 15.129C56.8558 14.625 56.0938 14.373 55.1038 14.373H52.8988Z" fill="#666666"/>
<path d="M59.8477 18.477C59.8477 18.195 59.8837 17.946 59.9557 17.73C60.0337 17.508 60.1387 17.322 60.2707 17.172C60.4027 17.022 60.5557 16.908 60.7297 16.83C60.9097 16.752 61.0987 16.713 61.2967 16.713C61.4947 16.713 61.6807 16.752 61.8547 16.83C62.0347 16.908 62.1907 17.022 62.3227 17.172C62.4547 17.322 62.5567 17.508 62.6287 17.73C62.7067 17.946 62.7457 18.195 62.7457 18.477C62.7457 18.759 62.7067 19.011 62.6287 19.233C62.5567 19.449 62.4547 19.632 62.3227 19.782C62.1907 19.926 62.0347 20.037 61.8547 20.115C61.6807 20.193 61.4947 20.232 61.2967 20.232C61.0987 20.232 60.9097 20.193 60.7297 20.115C60.5557 20.037 60.4027 19.926 60.2707 19.782C60.1387 19.632 60.0337 19.449 59.9557 19.233C59.8837 19.011 59.8477 18.759 59.8477 18.477ZM59.0377 18.477C59.0377 18.819 59.0857 19.137 59.1817 19.431C59.2777 19.725 59.4217 19.983 59.6137 20.205C59.8057 20.421 60.0427 20.592 60.3247 20.718C60.6067 20.838 60.9307 20.898 61.2967 20.898C61.6687 20.898 61.9927 20.838 62.2687 20.718C62.5507 20.592 62.7877 20.421 62.9797 20.205C63.1717 19.983 63.3157 19.725 63.4117 19.431C63.5077 19.137 63.5557 18.819 63.5557 18.477C63.5557 18.135 63.5077 17.817 63.4117 17.523C63.3157 17.223 63.1717 16.965 62.9797 16.749C62.7877 16.527 62.5507 16.353 62.2687 16.227C61.9927 16.101 61.6687 16.038 61.2967 16.038C60.9307 16.038 60.6067 16.101 60.3247 16.227C60.0427 16.353 59.8057 16.527 59.6137 16.749C59.4217 16.965 59.2777 17.223 59.1817 17.523C59.0857 17.817 59.0377 18.135 59.0377 18.477Z" fill="#666666"/>
<path d="M69.2457 20.799L70.7307 16.146H69.9387L68.8947 19.953H68.8767L67.9047 16.146H67.0677L66.1317 19.953H66.1137L65.0607 16.146H64.2147L65.7087 20.799H66.5367L67.4727 17.1H67.4907L68.4357 20.799H69.2457Z" fill="#666666"/>
<path d="M71.638 16.146V20.799H72.403V18.171C72.403 17.961 72.43 17.769 72.484 17.595C72.544 17.415 72.631 17.259 72.745 17.127C72.859 16.995 73 16.893 73.168 16.821C73.342 16.749 73.546 16.713 73.78 16.713C74.074 16.713 74.305 16.797 74.473 16.965C74.641 17.133 74.725 17.361 74.725 17.649V20.799H75.49V17.739C75.49 17.487 75.463 17.259 75.409 17.055C75.361 16.845 75.274 16.665 75.148 16.515C75.022 16.365 74.857 16.248 74.653 16.164C74.449 16.08 74.194 16.038 73.888 16.038C73.198 16.038 72.694 16.32 72.376 16.884H72.358V16.146H71.638Z" fill="#666666"/>
<path d="M76.864 14.373V20.799H77.629V14.373H76.864Z" fill="#666666"/>
<path d="M79.5521 18.477C79.5521 18.195 79.5881 17.946 79.6601 17.73C79.7381 17.508 79.8431 17.322 79.9751 17.172C80.1071 17.022 80.2601 16.908 80.4341 16.83C80.6141 16.752 80.8031 16.713 81.0011 16.713C81.1991 16.713 81.3851 16.752 81.5591 16.83C81.7391 16.908 81.8951 17.022 82.0271 17.172C82.1591 17.322 82.2611 17.508 82.3331 17.73C82.4111 17.946 82.4501 18.195 82.4501 18.477C82.4501 18.759 82.4111 19.011 82.3331 19.233C82.2611 19.449 82.1591 19.632 82.0271 19.782C81.8951 19.926 81.7391 20.037 81.5591 20.115C81.3851 20.193 81.1991 20.232 81.0011 20.232C80.8031 20.232 80.6141 20.193 80.4341 20.115C80.2601 20.037 80.1071 19.926 79.9751 19.782C79.8431 19.632 79.7381 19.449 79.6601 19.233C79.5881 19.011 79.5521 18.759 79.5521 18.477ZM78.7421 18.477C78.7421 18.819 78.7901 19.137 78.8861 19.431C78.9821 19.725 79.1261 19.983 79.3181 20.205C79.5101 20.421 79.7471 20.592 80.0291 20.718C80.3111 20.838 80.6351 20.898 81.0011 20.898C81.3731 20.898 81.6971 20.838 81.9731 20.718C82.2551 20.592 82.4921 20.421 82.6841 20.205C82.8761 19.983 83.0201 19.725 83.1161 19.431C83.2121 19.137 83.2601 18.819 83.2601 18.477C83.2601 18.135 83.2121 17.817 83.1161 17.523C83.0201 17.223 82.8761 16.965 82.6841 16.749C82.4921 16.527 82.2551 16.353 81.9731 16.227C81.6971 16.101 81.3731 16.038 81.0011 16.038C80.6351 16.038 80.3111 16.101 80.0291 16.227C79.7471 16.353 79.5101 16.527 79.3181 16.749C79.1261 16.965 78.9821 17.223 78.8861 17.523C78.7901 17.817 78.7421 18.135 78.7421 18.477Z" fill="#666666"/>
<path d="M88.4641 20.781C88.3321 20.859 88.1491 20.898 87.9151 20.898C87.7171 20.898 87.5581 20.844 87.4381 20.736C87.3241 20.622 87.2671 20.439 87.2671 20.187C87.0571 20.439 86.8111 20.622 86.5291 20.736C86.2531 20.844 85.9531 20.898 85.6291 20.898C85.4191 20.898 85.2181 20.874 85.0261 20.826C84.8401 20.778 84.6781 20.703 84.5401 20.601C84.4021 20.499 84.2911 20.367 84.2071 20.205C84.1291 20.037 84.0901 19.836 84.0901 19.602C84.0901 19.338 84.1351 19.122 84.2251 18.954C84.3151 18.786 84.4321 18.651 84.5761 18.549C84.7261 18.441 84.8941 18.36 85.0801 18.306C85.2721 18.252 85.4671 18.207 85.6651 18.171C85.8751 18.129 86.0731 18.099 86.2591 18.081C86.4511 18.057 86.6191 18.027 86.7631 17.991C86.9071 17.949 87.0211 17.892 87.1051 17.82C87.1891 17.742 87.2311 17.631 87.2311 17.487C87.2311 17.319 87.1981 17.184 87.1321 17.082C87.0721 16.98 86.9911 16.902 86.8891 16.848C86.7931 16.794 86.6821 16.758 86.5561 16.74C86.4361 16.722 86.3161 16.713 86.1961 16.713C85.8721 16.713 85.6021 16.776 85.3861 16.902C85.1701 17.022 85.0531 17.253 85.0351 17.595H84.2701C84.2821 17.307 84.3421 17.064 84.4501 16.866C84.5581 16.668 84.7021 16.509 84.8821 16.389C85.0621 16.263 85.2661 16.173 85.4941 16.119C85.7281 16.065 85.9771 16.038 86.2411 16.038C86.4511 16.038 86.6581 16.053 86.8621 16.083C87.0721 16.113 87.2611 16.176 87.4291 16.272C87.5971 16.362 87.7321 16.491 87.8341 16.659C87.9361 16.827 87.9871 17.046 87.9871 17.316V19.71C87.9871 19.89 87.9961 20.022 88.0141 20.106C88.0381 20.19 88.1101 20.232 88.2301 20.232C88.2961 20.232 88.3741 20.217 88.4641 20.187V20.781ZM87.2221 18.396C87.1261 18.468 87.0001 18.522 86.8441 18.558C86.6881 18.588 86.5231 18.615 86.3491 18.639C86.1811 18.657 86.0101 18.681 85.8361 18.711C85.6621 18.735 85.5061 18.777 85.3681 18.837C85.2301 18.897 85.1161 18.984 85.0261 19.098C84.9421 19.206 84.9001 19.356 84.9001 19.548C84.9001 19.674 84.9241 19.782 84.9721 19.872C85.0261 19.956 85.0921 20.025 85.1701 20.079C85.2541 20.133 85.3501 20.172 85.4581 20.196C85.5661 20.22 85.6801 20.232 85.8001 20.232C86.0521 20.232 86.2681 20.199 86.4481 20.133C86.6281 20.061 86.7751 19.974 86.8891 19.872C87.0031 19.764 87.0871 19.65 87.1411 19.53C87.1951 19.404 87.2221 19.287 87.2221 19.179V18.396Z" fill="#666666"/>
<path d="M89.914 18.513C89.914 18.285 89.938 18.063 89.986 17.847C90.034 17.631 90.112 17.439 90.22 17.271C90.328 17.103 90.472 16.968 90.652 16.866C90.832 16.764 91.051 16.713 91.309 16.713C91.573 16.713 91.798 16.764 91.984 16.866C92.17 16.962 92.32 17.091 92.434 17.253C92.554 17.415 92.641 17.604 92.695 17.82C92.749 18.03 92.776 18.249 92.776 18.477C92.776 18.693 92.749 18.906 92.695 19.116C92.647 19.326 92.566 19.515 92.452 19.683C92.338 19.845 92.191 19.977 92.011 20.079C91.831 20.181 91.612 20.232 91.354 20.232C91.108 20.232 90.892 20.184 90.706 20.088C90.526 19.992 90.376 19.863 90.256 19.701C90.142 19.539 90.055 19.356 89.995 19.152C89.941 18.942 89.914 18.729 89.914 18.513ZM93.514 20.799V14.373H92.749V16.767H92.731C92.647 16.629 92.542 16.515 92.416 16.425C92.296 16.329 92.167 16.254 92.029 16.2C91.891 16.14 91.753 16.098 91.615 16.074C91.477 16.05 91.348 16.038 91.228 16.038C90.874 16.038 90.562 16.104 90.292 16.236C90.028 16.362 89.806 16.536 89.626 16.758C89.452 16.974 89.32 17.229 89.23 17.523C89.146 17.817 89.104 18.129 89.104 18.459C89.104 18.789 89.149 19.101 89.239 19.395C89.329 19.689 89.461 19.947 89.635 20.169C89.815 20.391 90.037 20.568 90.301 20.7C90.571 20.832 90.886 20.898 91.246 20.898C91.57 20.898 91.867 20.841 92.137 20.727C92.407 20.613 92.605 20.427 92.731 20.169H92.749V20.799H93.514Z" fill="#666666"/>
<path d="M98.1139 18.477C98.1139 18.195 98.1499 17.946 98.2219 17.73C98.2999 17.508 98.4049 17.322 98.5369 17.172C98.6689 17.022 98.8219 16.908 98.9959 16.83C99.1759 16.752 99.3649 16.713 99.5629 16.713C99.7609 16.713 99.9469 16.752 100.121 16.83C100.301 16.908 100.457 17.022 100.589 17.172C100.721 17.322 100.823 17.508 100.895 17.73C100.973 17.946 101.012 18.195 101.012 18.477C101.012 18.759 100.973 19.011 100.895 19.233C100.823 19.449 100.721 19.632 100.589 19.782C100.457 19.926 100.301 20.037 100.121 20.115C99.9469 20.193 99.7609 20.232 99.5629 20.232C99.3649 20.232 99.1759 20.193 98.9959 20.115C98.8219 20.037 98.6689 19.926 98.5369 19.782C98.4049 19.632 98.2999 19.449 98.2219 19.233C98.1499 19.011 98.1139 18.759 98.1139 18.477ZM97.3039 18.477C97.3039 18.819 97.3519 19.137 97.4479 19.431C97.5439 19.725 97.6879 19.983 97.8799 20.205C98.0719 20.421 98.3089 20.592 98.5909 20.718C98.8729 20.838 99.1969 20.898 99.5629 20.898C99.9349 20.898 100.259 20.838 100.535 20.718C100.817 20.592 101.054 20.421 101.246 20.205C101.438 19.983 101.582 19.725 101.678 19.431C101.774 19.137 101.822 18.819 101.822 18.477C101.822 18.135 101.774 17.817 101.678 17.523C101.582 17.223 101.438 16.965 101.246 16.749C101.054 16.527 100.817 16.353 100.535 16.227C100.259 16.101 99.9349 16.038 99.5629 16.038C99.1969 16.038 98.8729 16.101 98.5909 16.227C98.3089 16.353 98.0719 16.527 97.8799 16.749C97.6879 16.965 97.5439 17.223 97.4479 17.523C97.3519 17.817 97.3039 18.135 97.3039 18.477Z" fill="#666666"/>
<path d="M102.904 16.146V20.799H103.669V18.171C103.669 17.961 103.696 17.769 103.75 17.595C103.81 17.415 103.897 17.259 104.011 17.127C104.125 16.995 104.266 16.893 104.434 16.821C104.608 16.749 104.812 16.713 105.046 16.713C105.34 16.713 105.571 16.797 105.739 16.965C105.907 17.133 105.991 17.361 105.991 17.649V20.799H106.756V17.739C106.756 17.487 106.729 17.259 106.675 17.055C106.627 16.845 106.54 16.665 106.414 16.515C106.288 16.365 106.123 16.248 105.919 16.164C105.715 16.08 105.46 16.038 105.154 16.038C104.464 16.038 103.96 16.32 103.642 16.884H103.624V16.146H102.904Z" fill="#666666"/>
<path d="M111.832 16.146V14.751H111.067V16.146H110.275V16.821H111.067V19.782C111.067 19.998 111.088 20.172 111.13 20.304C111.172 20.436 111.235 20.538 111.319 20.61C111.409 20.682 111.523 20.733 111.661 20.763C111.805 20.787 111.976 20.799 112.174 20.799H112.759V20.124H112.408C112.288 20.124 112.189 20.121 112.111 20.115C112.039 20.103 111.982 20.082 111.94 20.052C111.898 20.022 111.868 19.98 111.85 19.926C111.838 19.872 111.832 19.8 111.832 19.71V16.821H112.759V16.146H111.832Z" fill="#666666"/>
<path d="M113.789 14.373V20.799H114.554V18.171C114.554 17.961 114.581 17.769 114.635 17.595C114.695 17.415 114.782 17.259 114.896 17.127C115.01 16.995 115.151 16.893 115.319 16.821C115.493 16.749 115.697 16.713 115.931 16.713C116.225 16.713 116.456 16.797 116.624 16.965C116.792 17.133 116.876 17.361 116.876 17.649V20.799H117.641V17.739C117.641 17.487 117.614 17.259 117.56 17.055C117.512 16.845 117.425 16.665 117.299 16.515C117.173 16.365 117.008 16.248 116.804 16.164C116.6 16.08 116.345 16.038 116.039 16.038C115.901 16.038 115.757 16.053 115.607 16.083C115.463 16.113 115.322 16.161 115.184 16.227C115.052 16.287 114.932 16.368 114.824 16.47C114.716 16.566 114.632 16.686 114.572 16.83H114.554V14.373H113.789Z" fill="#666666"/>
<path d="M122.201 18.027H119.528C119.54 17.847 119.579 17.679 119.645 17.523C119.711 17.361 119.801 17.22 119.915 17.1C120.029 16.98 120.164 16.887 120.32 16.821C120.482 16.749 120.662 16.713 120.86 16.713C121.052 16.713 121.226 16.749 121.382 16.821C121.544 16.887 121.682 16.98 121.796 17.1C121.916 17.214 122.009 17.352 122.075 17.514C122.147 17.676 122.189 17.847 122.201 18.027ZM122.939 19.323H122.183C122.117 19.629 121.979 19.857 121.769 20.007C121.565 20.157 121.301 20.232 120.977 20.232C120.725 20.232 120.506 20.19 120.32 20.106C120.134 20.022 119.981 19.911 119.861 19.773C119.741 19.629 119.654 19.467 119.6 19.287C119.546 19.101 119.522 18.906 119.528 18.702H123.011C123.023 18.42 122.996 18.123 122.93 17.811C122.87 17.499 122.756 17.211 122.588 16.947C122.426 16.683 122.207 16.467 121.931 16.299C121.661 16.125 121.319 16.038 120.905 16.038C120.587 16.038 120.293 16.098 120.023 16.218C119.759 16.338 119.528 16.506 119.33 16.722C119.138 16.938 118.988 17.193 118.88 17.487C118.772 17.781 118.718 18.105 118.718 18.459C118.73 18.813 118.781 19.14 118.871 19.44C118.967 19.74 119.108 19.998 119.294 20.214C119.48 20.43 119.708 20.598 119.978 20.718C120.254 20.838 120.578 20.898 120.95 20.898C121.478 20.898 121.916 20.766 122.264 20.502C122.612 20.238 122.837 19.845 122.939 19.323Z" fill="#666666"/>
<path d="M69.1167 28.2757C71.4145 28.2757 72.9292 30.0921 72.9292 32.8978C72.9292 35.7112 71.4233 37.5189 69.1509 37.5189C67.9763 37.5803 66.8698 36.9651 66.3022 35.9349H66.2592V40.4192H64.4008V28.3704H66.1997V29.8763H66.2339C66.8267 28.8525 67.9343 28.2376 69.1167 28.2757ZM79.0815 28.2757C81.3794 28.2757 82.894 30.0921 82.894 32.8978C82.894 35.7112 81.3882 37.5189 79.1157 37.5189C77.9411 37.5803 76.8347 36.9651 76.2671 35.9349H76.2241V40.4192H74.3657V28.3704H76.1645V29.8763H76.1987C76.7915 28.8525 77.8991 28.2376 79.0815 28.2757ZM92.4233 24.7991C95.0473 24.7991 96.8462 26.2708 96.9067 28.4133H95.0307C94.9184 27.1741 93.894 26.426 92.3969 26.426C90.8999 26.426 89.8755 27.1829 89.8755 28.2844C89.8755 29.1624 90.5298 29.679 92.1303 30.0744L93.4985 30.4104C96.0464 31.0129 97.105 32.0364 97.105 33.8528C97.105 36.176 95.2544 37.6311 92.311 37.6311C89.5571 37.6311 87.6977 36.2102 87.5776 33.9641L89.48 33.9642C89.6177 35.1956 90.814 36.0042 92.4487 36.0042C94.0151 36.0042 95.1421 35.1956 95.1421 34.0852C95.1421 33.1213 94.4624 32.5442 92.853 32.1487L91.2437 31.761C88.9634 31.2102 87.9048 30.1438 87.9048 28.4133C87.9048 26.2708 89.772 24.7991 92.4233 24.7991ZM108.128 28.2591C110.753 28.2591 112.423 30.0491 112.423 32.8978C112.423 35.7542 110.762 37.5364 108.128 37.5364C105.496 37.5364 103.835 35.7542 103.835 32.8978C103.835 30.0491 105.512 28.2591 108.128 28.2591ZM123.177 28.2591C125.682 28.2591 127.257 29.9798 127.257 32.7249V33.3616H120.863V33.4739C120.803 34.148 121.036 34.8152 121.502 35.3058C121.968 35.7965 122.622 36.0633 123.298 36.0384C124.2 36.1229 125.05 35.605 125.389 34.7649L127.154 34.7649C126.904 36.4085 125.303 37.5364 123.255 37.5364C120.622 37.5364 118.987 35.7718 118.987 32.9407C118.987 30.1009 120.63 28.2591 123.177 28.2591ZM101.116 26.2278V28.3704H102.837V29.8421H101.116V34.8333C101.116 35.6087 101.46 35.97 102.217 35.97C102.422 35.9665 102.626 35.9521 102.829 35.927V37.3899C102.488 37.4535 102.142 37.4823 101.796 37.4759C99.9634 37.4759 99.2485 36.7874 99.2485 35.0315V29.8421H97.9321V28.3704H99.2485V26.2278H101.116ZM58.7632 25.0061L63.2466 37.4241H61.2075L60.0718 34.0677H55.3384L54.2017 37.4241H52.1968L56.6802 25.0061H58.7632ZM117.949 28.2757C118.163 28.2749 118.376 28.2982 118.585 28.345V30.0833C118.315 30.0007 118.033 29.9627 117.75 29.971C117.204 29.9488 116.675 30.1666 116.303 30.567C115.931 30.9675 115.752 31.5107 115.814 32.054V37.4241H113.956V28.3704H115.728V29.9114H115.771C116.018 28.9194 116.927 28.2367 117.949 28.2757ZM108.128 29.7903C106.623 29.7903 105.728 30.9525 105.728 32.8978C105.728 34.8597 106.623 36.0042 108.128 36.0042C109.634 36.0042 110.53 34.8597 110.53 32.8978C110.53 30.9437 109.634 29.7903 108.128 29.7903ZM68.6265 29.8597C67.2065 29.8597 66.2515 31.0901 66.2515 32.8978C66.2515 34.722 67.2065 35.9437 68.6265 35.9437C70.0718 35.9437 71.019 34.7474 71.019 32.8978C71.019 31.0648 70.0718 29.8597 68.6265 29.8597ZM78.5913 29.8597C77.1714 29.8597 76.2163 31.0901 76.2163 32.8978C76.2163 34.722 77.1714 35.9437 78.5913 35.9437C80.0366 35.9437 80.9839 34.7474 80.9839 32.8978C80.9839 31.0648 80.0366 29.8597 78.5913 29.8597ZM57.731 27.0716H57.6792L55.8286 32.5189H59.5806L57.731 27.0716ZM123.177 29.7649C122.566 29.7613 121.979 30.002 121.546 30.4335C121.113 30.865 120.87 31.4515 120.872 32.0628H125.398C125.432 31.4571 125.211 30.8649 124.79 30.4287C124.368 29.9925 123.784 29.7519 123.177 29.7649Z" fill="black"/>
</svg>
