<svg width="150" height="54" viewBox="0 0 150 54" fill="none" xmlns="http://www.w3.org/2000/svg">
<rect x="0.5" y="0.5" width="149" height="53" rx="19.5" fill="#FEF4F4" fill-opacity="0.17" stroke="#FEF4F4"/>
<path fill-rule="evenodd" clip-rule="evenodd" d="M37.7973 26.5064C37.8192 24.8099 38.7086 23.2429 40.1539 22.3543C39.2379 21.0462 37.7588 20.2466 36.1627 20.1966C34.4835 20.0204 32.8555 21.2015 31.9998 21.2015C31.1275 21.2015 29.81 20.2141 28.3913 20.2433C26.5246 20.3036 24.8266 21.3392 23.9184 22.9712C21.9844 26.3196 23.427 31.2407 25.2796 33.9473C26.2065 35.2726 27.2898 36.7531 28.7072 36.7006C30.0943 36.6431 30.6123 35.8161 32.2866 35.8161C33.9454 35.8161 34.4314 36.7006 35.8776 36.6672C37.366 36.643 38.3038 35.336 39.1981 33.9981C39.8641 33.0537 40.3766 32.01 40.7166 30.9056C38.9488 30.1579 37.7994 28.4257 37.7973 26.5064Z" fill="white"/>
<path fill-rule="evenodd" clip-rule="evenodd" d="M35.0657 18.4166C35.8772 17.4424 36.277 16.1903 36.1802 14.926C34.9403 15.0562 33.7951 15.6488 32.9726 16.5856C32.1604 17.5099 31.749 18.7192 31.8289 19.947C33.0853 19.96 34.2783 19.3959 35.0657 18.4166Z" fill="white"/>
<path d="M53.5855 19.706V14.72H55.0255C55.4215 14.72 55.7545 14.777 56.0245 14.891C56.2945 14.999 56.5135 15.161 56.6815 15.377C56.8555 15.587 56.9785 15.845 57.0505 16.151C57.1285 16.451 57.1675 16.793 57.1675 17.177C57.1675 17.573 57.1255 17.912 57.0415 18.194C56.9635 18.47 56.8615 18.701 56.7355 18.887C56.6095 19.073 56.4655 19.22 56.3035 19.328C56.1475 19.436 55.9885 19.52 55.8265 19.58C55.6645 19.634 55.5115 19.67 55.3675 19.688C55.2235 19.7 55.1035 19.706 55.0075 19.706H53.5855ZM52.7305 14V20.426H54.9355C55.4695 20.426 55.9315 20.351 56.3215 20.201C56.7115 20.051 57.0325 19.835 57.2845 19.553C57.5365 19.265 57.7225 18.914 57.8425 18.5C57.9625 18.08 58.0225 17.6 58.0225 17.06C58.0225 16.028 57.7555 15.26 57.2215 14.756C56.6875 14.252 55.9255 14 54.9355 14H52.7305Z" fill="#D9D9D9"/>
<path d="M59.6794 18.104C59.6794 17.822 59.7154 17.573 59.7874 17.357C59.8654 17.135 59.9704 16.949 60.1024 16.799C60.2344 16.649 60.3874 16.535 60.5614 16.457C60.7414 16.379 60.9304 16.34 61.1284 16.34C61.3264 16.34 61.5124 16.379 61.6864 16.457C61.8664 16.535 62.0224 16.649 62.1544 16.799C62.2864 16.949 62.3884 17.135 62.4604 17.357C62.5384 17.573 62.5774 17.822 62.5774 18.104C62.5774 18.386 62.5384 18.638 62.4604 18.86C62.3884 19.076 62.2864 19.259 62.1544 19.409C62.0224 19.553 61.8664 19.664 61.6864 19.742C61.5124 19.82 61.3264 19.859 61.1284 19.859C60.9304 19.859 60.7414 19.82 60.5614 19.742C60.3874 19.664 60.2344 19.553 60.1024 19.409C59.9704 19.259 59.8654 19.076 59.7874 18.86C59.7154 18.638 59.6794 18.386 59.6794 18.104ZM58.8694 18.104C58.8694 18.446 58.9174 18.764 59.0134 19.058C59.1094 19.352 59.2534 19.61 59.4454 19.832C59.6374 20.048 59.8744 20.219 60.1564 20.345C60.4384 20.465 60.7624 20.525 61.1284 20.525C61.5004 20.525 61.8244 20.465 62.1004 20.345C62.3824 20.219 62.6194 20.048 62.8114 19.832C63.0034 19.61 63.1474 19.352 63.2434 19.058C63.3394 18.764 63.3874 18.446 63.3874 18.104C63.3874 17.762 63.3394 17.444 63.2434 17.15C63.1474 16.85 63.0034 16.592 62.8114 16.376C62.6194 16.154 62.3824 15.98 62.1004 15.854C61.8244 15.728 61.5004 15.665 61.1284 15.665C60.7624 15.665 60.4384 15.728 60.1564 15.854C59.8744 15.98 59.6374 16.154 59.4454 16.376C59.2534 16.592 59.1094 16.85 59.0134 17.15C58.9174 17.444 58.8694 17.762 58.8694 18.104Z" fill="#D9D9D9"/>
<path d="M69.0774 20.426L70.5624 15.773H69.7704L68.7264 19.58H68.7084L67.7364 15.773H66.8994L65.9634 19.58H65.9454L64.8924 15.773H64.0464L65.5404 20.426H66.3684L67.3044 16.727H67.3224L68.2674 20.426H69.0774Z" fill="#D9D9D9"/>
<path d="M71.4697 15.773V20.426H72.2347V17.798C72.2347 17.588 72.2617 17.396 72.3157 17.222C72.3757 17.042 72.4627 16.886 72.5767 16.754C72.6907 16.622 72.8317 16.52 72.9997 16.448C73.1737 16.376 73.3777 16.34 73.6117 16.34C73.9057 16.34 74.1367 16.424 74.3047 16.592C74.4727 16.76 74.5567 16.988 74.5567 17.276V20.426H75.3217V17.366C75.3217 17.114 75.2947 16.886 75.2407 16.682C75.1927 16.472 75.1057 16.292 74.9797 16.142C74.8537 15.992 74.6887 15.875 74.4847 15.791C74.2807 15.707 74.0257 15.665 73.7197 15.665C73.0297 15.665 72.5257 15.947 72.2077 16.511H72.1897V15.773H71.4697Z" fill="#D9D9D9"/>
<path d="M76.6956 14V20.426H77.4606V14H76.6956Z" fill="#D9D9D9"/>
<path d="M79.3838 18.104C79.3838 17.822 79.4198 17.573 79.4918 17.357C79.5698 17.135 79.6748 16.949 79.8068 16.799C79.9388 16.649 80.0918 16.535 80.2658 16.457C80.4458 16.379 80.6348 16.34 80.8328 16.34C81.0308 16.34 81.2168 16.379 81.3908 16.457C81.5708 16.535 81.7268 16.649 81.8588 16.799C81.9908 16.949 82.0928 17.135 82.1648 17.357C82.2428 17.573 82.2818 17.822 82.2818 18.104C82.2818 18.386 82.2428 18.638 82.1648 18.86C82.0928 19.076 81.9908 19.259 81.8588 19.409C81.7268 19.553 81.5708 19.664 81.3908 19.742C81.2168 19.82 81.0308 19.859 80.8328 19.859C80.6348 19.859 80.4458 19.82 80.2658 19.742C80.0918 19.664 79.9388 19.553 79.8068 19.409C79.6748 19.259 79.5698 19.076 79.4918 18.86C79.4198 18.638 79.3838 18.386 79.3838 18.104ZM78.5738 18.104C78.5738 18.446 78.6218 18.764 78.7178 19.058C78.8138 19.352 78.9578 19.61 79.1498 19.832C79.3418 20.048 79.5788 20.219 79.8608 20.345C80.1428 20.465 80.4668 20.525 80.8328 20.525C81.2048 20.525 81.5288 20.465 81.8048 20.345C82.0868 20.219 82.3238 20.048 82.5158 19.832C82.7078 19.61 82.8518 19.352 82.9478 19.058C83.0438 18.764 83.0918 18.446 83.0918 18.104C83.0918 17.762 83.0438 17.444 82.9478 17.15C82.8518 16.85 82.7078 16.592 82.5158 16.376C82.3238 16.154 82.0868 15.98 81.8048 15.854C81.5288 15.728 81.2048 15.665 80.8328 15.665C80.4668 15.665 80.1428 15.728 79.8608 15.854C79.5788 15.98 79.3418 16.154 79.1498 16.376C78.9578 16.592 78.8138 16.85 78.7178 17.15C78.6218 17.444 78.5738 17.762 78.5738 18.104Z" fill="#D9D9D9"/>
<path d="M88.2957 20.408C88.1637 20.486 87.9807 20.525 87.7467 20.525C87.5487 20.525 87.3897 20.471 87.2697 20.363C87.1557 20.249 87.0987 20.066 87.0987 19.814C86.8887 20.066 86.6427 20.249 86.3607 20.363C86.0847 20.471 85.7847 20.525 85.4607 20.525C85.2507 20.525 85.0497 20.501 84.8577 20.453C84.6717 20.405 84.5097 20.33 84.3717 20.228C84.2337 20.126 84.1227 19.994 84.0387 19.832C83.9607 19.664 83.9217 19.463 83.9217 19.229C83.9217 18.965 83.9667 18.749 84.0567 18.581C84.1467 18.413 84.2637 18.278 84.4077 18.176C84.5577 18.068 84.7257 17.987 84.9117 17.933C85.1037 17.879 85.2987 17.834 85.4967 17.798C85.7067 17.756 85.9047 17.726 86.0907 17.708C86.2827 17.684 86.4507 17.654 86.5947 17.618C86.7387 17.576 86.8527 17.519 86.9367 17.447C87.0207 17.369 87.0627 17.258 87.0627 17.114C87.0627 16.946 87.0297 16.811 86.9637 16.709C86.9037 16.607 86.8227 16.529 86.7207 16.475C86.6247 16.421 86.5137 16.385 86.3877 16.367C86.2677 16.349 86.1477 16.34 86.0277 16.34C85.7037 16.34 85.4337 16.403 85.2177 16.529C85.0017 16.649 84.8847 16.88 84.8667 17.222H84.1017C84.1137 16.934 84.1737 16.691 84.2817 16.493C84.3897 16.295 84.5337 16.136 84.7137 16.016C84.8937 15.89 85.0977 15.8 85.3257 15.746C85.5597 15.692 85.8087 15.665 86.0727 15.665C86.2827 15.665 86.4897 15.68 86.6937 15.71C86.9037 15.74 87.0927 15.803 87.2607 15.899C87.4287 15.989 87.5637 16.118 87.6657 16.286C87.7677 16.454 87.8187 16.673 87.8187 16.943V19.337C87.8187 19.517 87.8277 19.649 87.8457 19.733C87.8697 19.817 87.9417 19.859 88.0617 19.859C88.1277 19.859 88.2057 19.844 88.2957 19.814V20.408ZM87.0537 18.023C86.9577 18.095 86.8317 18.149 86.6757 18.185C86.5197 18.215 86.3547 18.242 86.1807 18.266C86.0127 18.284 85.8417 18.308 85.6677 18.338C85.4937 18.362 85.3377 18.404 85.1997 18.464C85.0617 18.524 84.9477 18.611 84.8577 18.725C84.7737 18.833 84.7317 18.983 84.7317 19.175C84.7317 19.301 84.7557 19.409 84.8037 19.499C84.8577 19.583 84.9237 19.652 85.0017 19.706C85.0857 19.76 85.1817 19.799 85.2897 19.823C85.3977 19.847 85.5117 19.859 85.6317 19.859C85.8837 19.859 86.0997 19.826 86.2797 19.76C86.4597 19.688 86.6067 19.601 86.7207 19.499C86.8347 19.391 86.9187 19.277 86.9727 19.157C87.0267 19.031 87.0537 18.914 87.0537 18.806V18.023Z" fill="#D9D9D9"/>
<path d="M89.7457 18.14C89.7457 17.912 89.7697 17.69 89.8177 17.474C89.8657 17.258 89.9437 17.066 90.0517 16.898C90.1597 16.73 90.3037 16.595 90.4837 16.493C90.6637 16.391 90.8827 16.34 91.1407 16.34C91.4047 16.34 91.6297 16.391 91.8157 16.493C92.0017 16.589 92.1517 16.718 92.2657 16.88C92.3857 17.042 92.4727 17.231 92.5267 17.447C92.5807 17.657 92.6077 17.876 92.6077 18.104C92.6077 18.32 92.5807 18.533 92.5267 18.743C92.4787 18.953 92.3977 19.142 92.2837 19.31C92.1697 19.472 92.0227 19.604 91.8427 19.706C91.6627 19.808 91.4437 19.859 91.1857 19.859C90.9397 19.859 90.7237 19.811 90.5377 19.715C90.3577 19.619 90.2077 19.49 90.0877 19.328C89.9737 19.166 89.8867 18.983 89.8267 18.779C89.7727 18.569 89.7457 18.356 89.7457 18.14ZM93.3457 20.426V14H92.5807V16.394H92.5627C92.4787 16.256 92.3737 16.142 92.2477 16.052C92.1277 15.956 91.9987 15.881 91.8607 15.827C91.7227 15.767 91.5847 15.725 91.4467 15.701C91.3087 15.677 91.1797 15.665 91.0597 15.665C90.7057 15.665 90.3937 15.731 90.1237 15.863C89.8597 15.989 89.6377 16.163 89.4577 16.385C89.2837 16.601 89.1517 16.856 89.0617 17.15C88.9777 17.444 88.9357 17.756 88.9357 18.086C88.9357 18.416 88.9807 18.728 89.0707 19.022C89.1607 19.316 89.2927 19.574 89.4667 19.796C89.6467 20.018 89.8687 20.195 90.1327 20.327C90.4027 20.459 90.7177 20.525 91.0777 20.525C91.4017 20.525 91.6987 20.468 91.9687 20.354C92.2387 20.24 92.4367 20.054 92.5627 19.796H92.5807V20.426H93.3457Z" fill="#D9D9D9"/>
<path d="M97.9456 18.104C97.9456 17.822 97.9816 17.573 98.0536 17.357C98.1316 17.135 98.2366 16.949 98.3686 16.799C98.5006 16.649 98.6536 16.535 98.8276 16.457C99.0076 16.379 99.1966 16.34 99.3946 16.34C99.5926 16.34 99.7786 16.379 99.9526 16.457C100.133 16.535 100.289 16.649 100.421 16.799C100.553 16.949 100.655 17.135 100.727 17.357C100.805 17.573 100.844 17.822 100.844 18.104C100.844 18.386 100.805 18.638 100.727 18.86C100.655 19.076 100.553 19.259 100.421 19.409C100.289 19.553 100.133 19.664 99.9526 19.742C99.7786 19.82 99.5926 19.859 99.3946 19.859C99.1966 19.859 99.0076 19.82 98.8276 19.742C98.6536 19.664 98.5006 19.553 98.3686 19.409C98.2366 19.259 98.1316 19.076 98.0536 18.86C97.9816 18.638 97.9456 18.386 97.9456 18.104ZM97.1356 18.104C97.1356 18.446 97.1836 18.764 97.2796 19.058C97.3756 19.352 97.5196 19.61 97.7116 19.832C97.9036 20.048 98.1406 20.219 98.4226 20.345C98.7046 20.465 99.0286 20.525 99.3946 20.525C99.7666 20.525 100.091 20.465 100.367 20.345C100.649 20.219 100.886 20.048 101.078 19.832C101.27 19.61 101.414 19.352 101.51 19.058C101.606 18.764 101.654 18.446 101.654 18.104C101.654 17.762 101.606 17.444 101.51 17.15C101.414 16.85 101.27 16.592 101.078 16.376C100.886 16.154 100.649 15.98 100.367 15.854C100.091 15.728 99.7666 15.665 99.3946 15.665C99.0286 15.665 98.7046 15.728 98.4226 15.854C98.1406 15.98 97.9036 16.154 97.7116 16.376C97.5196 16.592 97.3756 16.85 97.2796 17.15C97.1836 17.444 97.1356 17.762 97.1356 18.104Z" fill="#D9D9D9"/>
<path d="M102.736 15.773V20.426H103.501V17.798C103.501 17.588 103.528 17.396 103.582 17.222C103.642 17.042 103.729 16.886 103.843 16.754C103.957 16.622 104.098 16.52 104.266 16.448C104.44 16.376 104.644 16.34 104.878 16.34C105.172 16.34 105.403 16.424 105.571 16.592C105.739 16.76 105.823 16.988 105.823 17.276V20.426H106.588V17.366C106.588 17.114 106.561 16.886 106.507 16.682C106.459 16.472 106.372 16.292 106.246 16.142C106.12 15.992 105.955 15.875 105.751 15.791C105.547 15.707 105.292 15.665 104.986 15.665C104.296 15.665 103.792 15.947 103.474 16.511H103.456V15.773H102.736Z" fill="#D9D9D9"/>
<path d="M111.663 15.773V14.378H110.898V15.773H110.106V16.448H110.898V19.409C110.898 19.625 110.919 19.799 110.961 19.931C111.003 20.063 111.066 20.165 111.15 20.237C111.24 20.309 111.354 20.36 111.492 20.39C111.636 20.414 111.807 20.426 112.005 20.426H112.59V19.751H112.239C112.119 19.751 112.02 19.748 111.942 19.742C111.87 19.73 111.813 19.709 111.771 19.679C111.729 19.649 111.699 19.607 111.681 19.553C111.669 19.499 111.663 19.427 111.663 19.337V16.448H112.59V15.773H111.663Z" fill="#D9D9D9"/>
<path d="M113.62 14V20.426H114.385V17.798C114.385 17.588 114.412 17.396 114.466 17.222C114.526 17.042 114.613 16.886 114.727 16.754C114.841 16.622 114.982 16.52 115.15 16.448C115.324 16.376 115.528 16.34 115.762 16.34C116.056 16.34 116.287 16.424 116.455 16.592C116.623 16.76 116.707 16.988 116.707 17.276V20.426H117.472V17.366C117.472 17.114 117.445 16.886 117.391 16.682C117.343 16.472 117.256 16.292 117.13 16.142C117.004 15.992 116.839 15.875 116.635 15.791C116.431 15.707 116.176 15.665 115.87 15.665C115.732 15.665 115.588 15.68 115.438 15.71C115.294 15.74 115.153 15.788 115.015 15.854C114.883 15.914 114.763 15.995 114.655 16.097C114.547 16.193 114.463 16.313 114.403 16.457H114.385V14H113.62Z" fill="#D9D9D9"/>
<path d="M122.032 17.654H119.359C119.371 17.474 119.41 17.306 119.476 17.15C119.542 16.988 119.632 16.847 119.746 16.727C119.86 16.607 119.995 16.514 120.151 16.448C120.313 16.376 120.493 16.34 120.691 16.34C120.883 16.34 121.057 16.376 121.213 16.448C121.375 16.514 121.513 16.607 121.627 16.727C121.747 16.841 121.84 16.979 121.906 17.141C121.978 17.303 122.02 17.474 122.032 17.654ZM122.77 18.95H122.014C121.948 19.256 121.81 19.484 121.6 19.634C121.396 19.784 121.132 19.859 120.808 19.859C120.556 19.859 120.337 19.817 120.151 19.733C119.965 19.649 119.812 19.538 119.692 19.4C119.572 19.256 119.485 19.094 119.431 18.914C119.377 18.728 119.353 18.533 119.359 18.329H122.842C122.854 18.047 122.827 17.75 122.761 17.438C122.701 17.126 122.587 16.838 122.419 16.574C122.257 16.31 122.038 16.094 121.762 15.926C121.492 15.752 121.15 15.665 120.736 15.665C120.418 15.665 120.124 15.725 119.854 15.845C119.59 15.965 119.359 16.133 119.161 16.349C118.969 16.565 118.819 16.82 118.711 17.114C118.603 17.408 118.549 17.732 118.549 18.086C118.561 18.44 118.612 18.767 118.702 19.067C118.798 19.367 118.939 19.625 119.125 19.841C119.311 20.057 119.539 20.225 119.809 20.345C120.085 20.465 120.409 20.525 120.781 20.525C121.309 20.525 121.747 20.393 122.095 20.129C122.443 19.865 122.668 19.472 122.77 18.95Z" fill="#D9D9D9"/>
<path d="M68.9484 27.9026C71.2462 27.9026 72.7609 29.719 72.7609 32.5247C72.7609 35.3382 71.255 37.1458 68.9825 37.1458C67.8079 37.2072 66.7015 36.592 66.1339 35.5618H66.0909V40.0462H64.2325V27.9974H66.0314V29.5032H66.0656C66.6584 28.4795 67.766 27.8645 68.9484 27.9026ZM78.9132 27.9026C81.2111 27.9026 82.7257 29.719 82.7257 32.5247C82.7257 35.3382 81.2198 37.1458 78.9474 37.1458C77.7728 37.2072 76.6663 36.592 76.0988 35.5618H76.0558V40.0462H74.1974V27.9974H75.9962V29.5032H76.0304C76.6232 28.4795 77.7308 27.8645 78.9132 27.9026ZM92.255 24.426C94.879 24.426 96.6779 25.8977 96.7384 28.0403H94.8624C94.7501 26.801 93.7257 26.053 92.2286 26.053C90.7315 26.053 89.7071 26.8098 89.7071 27.9114C89.7071 28.7893 90.3614 29.3059 91.962 29.7014L93.3302 30.0373C95.878 30.6399 96.9366 31.6633 96.9366 33.4797C96.9366 35.8029 95.086 37.258 92.1427 37.258C89.3888 37.258 87.5294 35.8371 87.4093 33.591L89.3116 33.5911C89.4493 34.8226 90.6456 35.6311 92.2804 35.6311C93.8468 35.6311 94.9738 34.8225 94.9738 33.7122C94.9738 32.7483 94.2941 32.1712 92.6847 31.7756L91.0753 31.3879C88.7951 30.8372 87.7365 29.7708 87.7365 28.0403C87.7365 25.8977 89.6036 24.426 92.255 24.426ZM107.96 27.886C110.585 27.886 112.255 29.676 112.255 32.5247C112.255 35.3812 110.594 37.1634 107.96 37.1634C105.327 37.1634 103.666 35.3812 103.666 32.5247C103.666 29.6761 105.344 27.886 107.96 27.886ZM123.009 27.886C125.514 27.886 127.089 29.6067 127.089 32.3519V32.9886H120.694V33.1009C120.635 33.7749 120.868 34.4421 121.333 34.9328C121.799 35.4234 122.454 35.6902 123.13 35.6653C124.032 35.7498 124.882 35.232 125.221 34.3919L126.985 34.3919C126.735 36.0354 125.135 37.1634 123.087 37.1634C120.453 37.1634 118.818 35.3987 118.818 32.5677C118.818 29.7278 120.462 27.886 123.009 27.886ZM100.947 25.8548V27.9974H102.669V29.469H100.947V34.4603C100.947 35.2356 101.292 35.597 102.049 35.597C102.253 35.5934 102.457 35.5791 102.66 35.554V37.0169C102.32 37.0804 101.974 37.1092 101.628 37.1028C99.795 37.1028 99.0802 36.4143 99.0802 34.6585V29.469H97.7638V27.9974H99.0802V25.8548H100.947ZM58.5948 24.6331L63.0782 37.0511H61.0392L59.9034 33.6946H55.17L54.0333 37.0511H52.0284L56.5118 24.6331H58.5948ZM117.78 27.9026C117.995 27.9019 118.208 27.9251 118.417 27.972V29.7102C118.147 29.6276 117.865 29.5897 117.582 29.5979C117.036 29.5758 116.507 29.7935 116.135 30.194C115.762 30.5945 115.584 31.1377 115.646 31.6809V37.0511H113.787V27.9974H115.56V29.5384H115.603C115.85 28.5464 116.759 27.8636 117.78 27.9026ZM107.96 29.4173C106.454 29.4173 105.56 30.5794 105.56 32.5247C105.56 34.4866 106.454 35.6312 107.96 35.6312C109.466 35.6312 110.361 34.4866 110.361 32.5247C110.361 30.5706 109.466 29.4173 107.96 29.4173ZM68.4581 29.4866C67.0382 29.4866 66.0831 30.7171 66.0831 32.5247C66.0831 34.3489 67.0382 35.5706 68.4581 35.5706C69.9034 35.5706 70.8507 34.3743 70.8507 32.5247C70.8507 30.6917 69.9034 29.4866 68.4581 29.4866ZM78.423 29.4866C77.003 29.4866 76.048 30.7171 76.048 32.5247C76.048 34.3489 77.003 35.5706 78.423 35.5706C79.8683 35.5706 80.8156 34.3743 80.8156 32.5247C80.8156 30.6917 79.8683 29.4866 78.423 29.4866ZM57.5627 26.6985H57.5109L55.6603 32.1458H59.4123L57.5627 26.6985ZM123.009 29.3919C122.398 29.3882 121.81 29.6289 121.377 30.0604C120.944 30.4919 120.702 31.0785 120.703 31.6898H125.23C125.263 31.0841 125.043 30.4918 124.621 30.0556C124.2 29.6194 123.615 29.3789 123.009 29.3919Z" fill="white"/>
</svg>
