<svg width="66" height="97" viewBox="0 0 66 97" fill="none" xmlns="http://www.w3.org/2000/svg">
<path d="M65.4182 0.971977C65.4027 0.696269 65.1666 0.485309 64.8909 0.500786C64.6152 0.516262 64.4043 0.752314 64.4197 1.02802L65.4182 0.971977ZM59.4195 33.6137L58.9675 33.3999L58.9675 33.3999L59.4195 33.6137ZM42.9882 47.1195L42.9892 46.6195L42.9882 47.1195ZM37.2501 45.1785L36.9034 45.5388L36.9448 45.5786L36.9941 45.608L37.2501 45.1785ZM32.8327 33.1977L33.3326 33.2076L33.3326 33.2076L32.8327 33.1977ZM36.8435 22.9541L36.4631 22.6296L36.4631 22.6296L36.8435 22.9541ZM46.7212 18.8381L46.6809 19.3365L46.7044 19.3384L46.7279 19.338L46.7212 18.8381ZM52.5521 43.0049L52.0533 42.9704L52.5521 43.0049ZM42.3993 69.6779L41.9812 69.4037L41.9812 69.4037L42.3993 69.6779ZM19.4281 88.018L19.2036 87.5712L19.4281 88.018ZM2.74336 92.0154L2.60845 91.5339L2.74336 92.0154ZM0.26005 91.8919C0.0556694 92.0776 0.0405226 92.3938 0.226219 92.5982L3.25231 95.9288C3.43801 96.1331 3.75423 96.1483 3.95861 95.9626C4.16299 95.7769 4.17814 95.4607 3.99244 95.2563L1.30258 92.2958L4.26309 89.6059C4.46747 89.4202 4.48262 89.104 4.29692 88.8996C4.11123 88.6952 3.79501 88.6801 3.59063 88.8658L0.26005 91.8919ZM64.4197 1.02802C64.6418 4.98362 64.056 11.4403 63.0179 17.7523C61.9784 24.0721 60.4994 30.1599 58.9675 33.3999L59.8716 33.8274C61.4681 30.4508 62.9639 24.2422 64.0046 17.9145C65.0466 11.5791 65.6464 5.03723 65.4182 0.971977L64.4197 1.02802ZM58.9675 33.3999C57.5794 36.3359 55.1873 39.6621 52.321 42.2469C49.4452 44.8402 46.1616 46.6259 42.9892 46.6195L42.9871 47.6195C46.5192 47.6267 50.035 45.6549 52.9907 42.9895C55.9558 40.3156 58.4273 36.8821 59.8716 33.8274L58.9675 33.3999ZM42.9892 46.6195C42.225 46.6179 41.5379 46.5508 40.7111 46.2919C39.8756 46.0303 38.8784 45.5669 37.5061 44.749L36.9941 45.608C38.4016 46.4469 39.4736 46.9524 40.4123 47.2462C41.3596 47.5429 42.1516 47.6178 42.9871 47.6195L42.9892 46.6195ZM37.5967 44.8181C34.0682 41.4237 33.2427 37.7799 33.3326 33.2076L32.3328 33.1879C32.2396 37.9279 33.1059 41.8857 36.9034 45.5388L37.5967 44.8181ZM33.3326 33.2076C33.3754 31.0355 33.7184 29.3008 34.3571 27.7442C34.9967 26.1855 35.9429 24.7807 37.224 23.2785L36.4631 22.6296C35.1404 24.1807 34.125 25.6758 33.432 27.3646C32.7381 29.0556 32.3775 30.9161 32.3328 33.1879L33.3326 33.2076ZM37.224 23.2785C39.5445 20.5573 42.9358 19.0335 46.6809 19.3365L46.7615 18.3397C42.6812 18.0097 38.9819 19.6759 36.4631 22.6296L37.224 23.2785ZM46.7279 19.338C48.1047 19.3196 49.2051 20.3809 50.0671 22.3829C50.9176 24.3585 51.4457 27.0629 51.7602 29.901C52.388 35.5665 52.1482 41.5987 52.0533 42.9704L53.0509 43.0394C53.1481 41.6342 53.3908 35.5373 52.7541 29.7909C52.4363 26.9229 51.8954 24.1007 50.9856 21.9874C50.0871 19.9006 48.7357 18.311 46.7145 18.3381L46.7279 19.338ZM52.0533 42.9704C51.3084 53.7364 47.2538 61.3642 41.9812 69.4037L42.8174 69.9521C48.1256 61.8583 52.2885 54.0581 53.0509 43.0394L52.0533 42.9704ZM41.9812 69.4037C36.2005 78.218 28.4295 82.9362 19.2036 87.5712L19.6525 88.4648C28.9144 83.8117 36.8862 78.996 42.8174 69.9521L41.9812 69.4037ZM19.2036 87.5712C16.6826 88.8377 13.9581 89.4393 11.1375 89.9175C8.33808 90.392 5.41317 90.748 2.60845 91.5339L2.87827 92.4968C5.61541 91.7299 8.44238 91.3886 11.3046 90.9034C14.1457 90.4218 16.9926 89.8011 19.6525 88.4648L19.2036 87.5712ZM2.60845 91.5339C1.80663 91.7586 1.40312 91.8 0.620205 91.7625L0.572361 92.7614C1.46208 92.804 1.97285 92.7505 2.87827 92.4968L2.60845 91.5339Z" fill="black"/>
</svg>
