<svg width="175" height="98" viewBox="0 0 175 98" fill="none" xmlns="http://www.w3.org/2000/svg">
<path d="M72.4071 6.29315C50.4888 5.41879 28.4142 16.8307 13.7712 30.615C1.8639 41.8475 -5.56223 59.0963 5.90529 73.2677C15.7936 85.5024 34.5419 90.6158 49.9022 93.7299C65.3125 96.8666 81.0728 97.617 96.7217 97.0723C123.182 96.1452 172.434 90.9423 173.914 59.2581C174.772 41.1111 159.925 21.933 143.951 11.9683C124.684 -0.0470086 100.574 -0.618352 78.6342 2.28134C56.3699 5.23424 34.7343 12.7831 19.5197 28.0925C7.21404 40.4727 -3.54314 61.4431 8.86057 77.2103C19.8287 91.1558 42.8316 93.8376 59.8254 93.6624C80.4228 93.4503 101.049 92.2178 121.025 87.8908C139.35 83.9063 159.047 76.7419 169.362 61.6665C176.701 50.9677 177.205 38.5833 166.789 29.1437C156.123 19.463 139.558 15.4538 125.41 12.6436C109.868 9.5695 94.4736 8.45135 78.7256 9.07896C74.9646 9.23907 71.1883 9.38116 67.4314 9.50981C65.7489 9.55996 66.1611 11.9189 67.8263 11.8664C78.3152 11.5214 88.7409 10.72 99.2387 11.5124C106.608 12.0842 113.964 13.0224 121.259 14.2886C136.402 16.91 153.648 20.977 165.239 31.0037C179.174 43.0519 169.971 60.5305 158.09 69.958C141.854 82.8442 118.096 86.9603 97.1619 89.3206C77.3039 91.5506 55.2278 93.3441 35.4505 88.9432C25.8698 86.8154 16.2336 82.5678 10.3273 75.0512C3.51551 66.375 5.73203 55.3207 9.78862 46.3655C19.7583 24.4111 43.1106 11.8714 67.6398 6.5926C91.2411 1.52751 118.228 0.621777 140.106 12.5014C151.004 18.4197 159.228 27.4903 164.961 37.6566C169.519 45.7635 172.639 54.881 170.694 63.8746C167.363 79.231 148.523 86.3164 133.769 89.9718C116.516 94.2577 97.9978 95.2882 80.073 94.7645C63.346 94.2547 46.2756 91.6672 30.5516 85.9605C21.7813 82.7713 13.12 78.2202 7.41779 71.1627C1.03284 63.2629 1.78708 53.2641 5.94238 44.898C11.4934 33.7074 22.858 25.252 34.1076 19.0059C45.2255 12.8225 58.7603 8.1101 72.1153 8.63922C73.7639 8.71262 74.0924 6.35539 72.4071 6.29315Z" fill="#F54A4A"/>
</svg>
