<svg width="126" height="40" viewBox="0 0 126 40" fill="none" xmlns="http://www.w3.org/2000/svg">
<path d="M62.4 13.36V26.8H59.7696V18.0832L55.9872 24.3232H55.68L51.8976 18.1024V26.8H49.248V13.36H51.9744L55.8336 19.7152L59.6736 13.36H62.4ZM71.0483 17.2H73.6979L70.2035 26.8C69.7043 28.1824 69.0387 29.1808 68.2067 29.7952C67.3875 30.4224 66.3635 30.704 65.1347 30.64V28.336C65.8003 28.3488 66.3251 28.208 66.7091 27.9136C67.1059 27.6192 67.4195 27.1456 67.6499 26.4928L63.7139 17.2H66.4211L68.9171 23.6512L71.0483 17.2ZM81.3662 27.0688C79.3438 27.0688 77.6734 26.3968 76.355 25.0528C75.0366 23.7088 74.3774 22.0512 74.3774 20.08C74.3774 18.096 75.0366 16.4384 76.355 15.1072C77.6734 13.7632 79.3438 13.0912 81.3662 13.0912C82.5822 13.0912 83.7022 13.3792 84.7262 13.9552C85.763 14.5184 86.5694 15.2864 87.1454 16.2592L84.8606 17.584C84.5278 16.9824 84.0542 16.5152 83.4398 16.1824C82.8254 15.8368 82.1342 15.664 81.3662 15.664C80.0606 15.664 79.0046 16.0736 78.1982 16.8928C77.4046 17.712 77.0078 18.7744 77.0078 20.08C77.0078 21.3728 77.4046 22.4288 78.1982 23.248C79.0046 24.0672 80.0606 24.4768 81.3662 24.4768C82.1342 24.4768 82.8254 24.3104 83.4398 23.9776C84.067 23.632 84.5406 23.1648 84.8606 22.576L87.1454 23.9008C86.5694 24.8736 85.7694 25.648 84.7454 26.224C83.7214 26.7872 82.595 27.0688 81.3662 27.0688ZM91.2846 18.8512C91.515 18.2368 91.8926 17.776 92.4174 17.4688C92.955 17.1616 93.5502 17.008 94.203 17.008V19.7728C93.4478 19.6832 92.7694 19.8368 92.1678 20.2336C91.579 20.6304 91.2846 21.2896 91.2846 22.2112V26.8H88.8078V17.2H91.2846V18.8512ZM101.988 17.2H104.464V26.8H101.988V25.7248C101.386 26.6208 100.432 27.0688 99.1268 27.0688C98.0772 27.0688 97.2068 26.7168 96.5156 26.0128C95.8372 25.3088 95.498 24.336 95.498 23.0944V17.2H97.9748V22.7872C97.9748 23.4272 98.1476 23.92 98.4932 24.2656C98.8388 24.5984 99.2996 24.7648 99.8756 24.7648C100.516 24.7648 101.028 24.5664 101.412 24.1696C101.796 23.7728 101.988 23.1776 101.988 22.384V17.2ZM108.943 19.9264C108.943 20.1824 109.109 20.3936 109.442 20.56C109.787 20.7136 110.203 20.8544 110.69 20.9824C111.176 21.0976 111.663 21.2512 112.149 21.4432C112.635 21.6224 113.045 21.9296 113.378 22.3648C113.723 22.8 113.896 23.344 113.896 23.9968C113.896 24.9824 113.525 25.744 112.783 26.2816C112.053 26.8064 111.138 27.0688 110.037 27.0688C108.066 27.0688 106.722 26.3072 106.005 24.784L108.155 23.5744C108.437 24.4064 109.064 24.8224 110.037 24.8224C110.92 24.8224 111.362 24.5472 111.362 23.9968C111.362 23.7408 111.189 23.536 110.843 23.3824C110.511 23.216 110.101 23.0688 109.615 22.9408C109.128 22.8128 108.642 22.6528 108.155 22.4608C107.669 22.2688 107.253 21.968 106.907 21.5584C106.575 21.136 106.408 20.6112 106.408 19.984C106.408 19.0368 106.754 18.2944 107.445 17.7568C108.149 17.2064 109.019 16.9312 110.056 16.9312C110.837 16.9312 111.547 17.1104 112.187 17.4688C112.827 17.8144 113.333 18.3136 113.704 18.9664L111.592 20.1184C111.285 19.4656 110.773 19.1392 110.056 19.1392C109.736 19.1392 109.467 19.2096 109.25 19.3504C109.045 19.4912 108.943 19.6832 108.943 19.9264ZM120.827 16.9312C121.876 16.9312 122.74 17.2832 123.419 17.9872C124.11 18.6912 124.455 19.664 124.455 20.9056V26.8H121.979V21.2128C121.979 20.5728 121.806 20.0864 121.46 19.7536C121.115 19.408 120.654 19.2352 120.078 19.2352C119.438 19.2352 118.926 19.4336 118.542 19.8304C118.158 20.2272 117.966 20.8224 117.966 21.616V26.8H115.489V13.36H117.966V18.2752C118.567 17.3792 119.521 16.9312 120.827 16.9312Z" fill="black"/>
<rect y="0.800049" width="38.4" height="38.4" rx="9.6" fill="#F32424"/>
<g clip-path="url(#clip0_134_1881)">
<path d="M20.775 16.8501C21.8383 16.8501 22.7 17.7251 22.7 18.9501C22.7 21.4001 20.075 22.8001 19.2 23.3251C18.325 22.8001 15.7 21.4001 15.7 18.9501C15.7 17.7251 16.575 16.8501 17.625 16.8501C18.276 16.8501 18.85 17.2001 19.2 17.5501C19.55 17.2001 20.124 16.8501 20.775 16.8501Z" fill="white"/>
</g>
<path d="M19.2001 10.4001C24.502 10.4001 28.8001 14.6982 28.8 20.0001C28.8 25.302 24.502 29.6001 19.2 29.6001" stroke="url(#paint0_radial_134_1881)" stroke-width="3.6" stroke-linecap="round"/>
<path d="M19.2 29.6001C13.898 29.6001 9.59998 25.3021 9.59998 20.0001C9.59998 14.6982 13.898 10.4001 19.2 10.4001" stroke="url(#paint1_radial_134_1881)" stroke-width="3.6" stroke-linecap="round"/>
<defs>
<radialGradient id="paint0_radial_134_1881" cx="0" cy="0" r="1" gradientUnits="userSpaceOnUse" gradientTransform="translate(18.9 10.4001) rotate(46.4321) scale(16.9759 17.5769)">
<stop stop-color="white" stop-opacity="0"/>
<stop offset="1" stop-color="white"/>
</radialGradient>
<radialGradient id="paint1_radial_134_1881" cx="0" cy="0" r="1" gradientUnits="userSpaceOnUse" gradientTransform="translate(19.5 29.6001) rotate(-133.568) scale(16.9759 17.5769)">
<stop stop-color="white" stop-opacity="0"/>
<stop offset="1" stop-color="white"/>
</radialGradient>
<clipPath id="clip0_134_1881">
<rect width="8.4" height="8.4" fill="white" transform="translate(15 15.8)"/>
</clipPath>
</defs>
</svg>
