<svg width="66" height="66" viewBox="0 0 66 66" fill="none" xmlns="http://www.w3.org/2000/svg">
<path fill-rule="evenodd" clip-rule="evenodd" d="M33 65C50.6731 65 65 50.6731 65 33C65 15.3269 50.6731 1 33 1C15.3269 1 1 15.3269 1 33C1 50.6731 15.3269 65 33 65Z" stroke="#FBBBBB"/>
<g clip-path="url(#clip0_21_778)">
<path fill-rule="evenodd" clip-rule="evenodd" d="M33 59C47.3594 59 59 47.3594 59 33C59 18.6406 47.3594 7 33 7C18.6406 7 7 18.6406 7 33C7 47.3594 18.6406 59 33 59Z" fill="#F54A4A"/>
<path d="M39 26.25H27C26.59 26.25 26.25 25.91 26.25 25.5C26.25 25.09 26.59 24.75 27 24.75H39C39.41 24.75 39.75 25.09 39.75 25.5C39.75 25.91 39.41 26.25 39 26.25Z" fill="white"/>
<path d="M36 23.75H30C29.59 23.75 29.25 23.41 29.25 23C29.25 22.59 29.59 22.25 30 22.25H36C36.41 22.25 36.75 22.59 36.75 23C36.75 23.41 36.41 23.75 36 23.75Z" fill="white"/>
<path opacity="0.4" d="M39 28H27C24.8 28 23 29.8 23 32V39C23 41.2 24.8 43 27 43H39C41.2 43 43 41.2 43 39V32C43 29.8 41.2 28 39 28Z" fill="white"/>
<path d="M36.37 30.89C36.07 30.65 35.52 30.42 34.64 30.65L31.91 31.4C31.06 31.62 30.51 32.34 30.51 33.23V34.83V36.73C30.31 36.67 30.11 36.63 29.89 36.63C28.72 36.63 27.77 37.58 27.77 38.75C27.77 39.92 28.72 40.87 29.89 40.87C31.06 40.87 32.01 39.92 32.01 38.75V38.74V35.41L35.53 34.45V35.82C35.33 35.76 35.13 35.72 34.91 35.72C33.74 35.72 32.79 36.67 32.79 37.84C32.79 39.01 33.74 39.96 34.91 39.96C36.06 39.96 37 39.04 37.02 37.89C37.02 37.87 37.03 37.86 37.03 37.84V33.47V32.49C37.03 31.59 36.67 31.12 36.37 30.89ZM29.89 39.36C29.55 39.36 29.27 39.08 29.27 38.74C29.27 38.4 29.55 38.12 29.89 38.12C30.23 38.12 30.5 38.39 30.51 38.73C30.51 39.08 30.23 39.36 29.89 39.36ZM34.91 38.45C34.57 38.45 34.29 38.17 34.29 37.83C34.29 37.49 34.57 37.21 34.91 37.21C35.25 37.21 35.53 37.49 35.53 37.83C35.53 38.17 35.25 38.45 34.91 38.45Z" fill="white"/>
</g>
<defs>
<clipPath id="clip0_21_778">
<rect width="52" height="52" fill="white" transform="translate(7 7)"/>
</clipPath>
</defs>
</svg>
