<svg width="151" height="55" viewBox="0 0 151 55" fill="none" xmlns="http://www.w3.org/2000/svg">
<rect x="0.168335" y="0.373047" width="150" height="54" rx="20" fill="#260202"/>
<path fill-rule="evenodd" clip-rule="evenodd" d="M18.6303 13.7698C18.3393 14.0778 18.1683 14.5548 18.1683 15.1738V37.2718C18.1683 37.8908 18.3393 38.3678 18.6303 38.6758L18.7043 38.7478L31.0833 26.3688V26.0768L18.7043 13.6978L18.6303 13.7698Z" fill="#00D7FE"/>
<path d="M35.2084 30.4967L31.0834 26.3687V26.0767L35.2104 21.9497L40.1924 24.7797C41.5884 25.5737 41.5884 26.8717 40.1924 27.6647L35.3034 30.4427L35.2084 30.4967Z" fill="white"/>
<path fill-rule="evenodd" clip-rule="evenodd" d="M35.2084 30.4967L31.0834 26.3687V26.0767L35.2104 21.9497L40.1924 24.7797C41.5884 25.5737 41.5884 26.8717 40.1924 27.6647L35.3034 30.4427L35.2084 30.4967Z" fill="url(#paint0_linear_134_2046)"/>
<path d="M35.3034 30.4429L31.0834 26.2229L18.6304 38.6759C19.0914 39.1629 19.8514 39.2229 20.7074 38.7369L35.3034 30.4429Z" fill="white"/>
<path fill-rule="evenodd" clip-rule="evenodd" d="M35.3034 30.4429L31.0834 26.2229L18.6304 38.6759C19.0914 39.1629 19.8514 39.2229 20.7074 38.7369L35.3034 30.4429Z" fill="url(#paint1_linear_134_2046)"/>
<path d="M35.3034 22.0028L20.7074 13.7088C19.8514 13.2228 19.0914 13.2828 18.6304 13.7698L31.0834 26.2228L35.3034 22.0028Z" fill="white"/>
<path fill-rule="evenodd" clip-rule="evenodd" d="M35.3034 22.0028L20.7074 13.7088C19.8514 13.2228 19.0914 13.2828 18.6304 13.7698L31.0834 26.2228L35.3034 22.0028Z" fill="url(#paint2_linear_134_2046)"/>
<path fill-rule="evenodd" clip-rule="evenodd" d="M113.089 37.1759H114.955V24.6749H113.089V37.1759ZM129.896 29.1779L127.757 34.5979H127.693L125.473 29.1779H123.463L126.792 36.7529L124.894 40.9669H126.841L131.971 29.1779H129.896ZM119.314 35.7559C118.702 35.7559 117.85 35.4509 117.85 34.6949C117.85 33.7299 118.912 33.3599 119.828 33.3599C120.649 33.3599 121.034 33.5369 121.533 33.7779C121.388 34.9359 120.391 35.7559 119.314 35.7559ZM119.539 28.9049C118.188 28.9049 116.789 29.4999 116.21 30.8189L117.866 31.5099C118.22 30.8189 118.879 30.5929 119.571 30.5929C120.536 30.5929 121.517 31.1719 121.533 32.2019V32.3299C121.195 32.1369 120.472 31.8479 119.587 31.8479C117.802 31.8479 115.984 32.8289 115.984 34.6619C115.984 36.3349 117.448 37.4129 119.088 37.4129C120.343 37.4129 121.034 36.8499 121.469 36.1899H121.533V37.1549H123.334V32.3629C123.334 30.1429 121.678 28.9049 119.539 28.9049ZM108.007 30.6999H105.353V26.4149H108.007C109.402 26.4149 110.194 27.5699 110.194 28.5569C110.194 29.5259 109.402 30.6999 108.007 30.6999ZM107.959 24.6749H103.488V37.1759H105.353V32.4399H107.959C110.027 32.4399 112.06 30.9419 112.06 28.5569C112.06 26.1719 110.027 24.6749 107.959 24.6749ZM83.5783 35.7579C82.2893 35.7579 81.2103 34.6789 81.2103 33.1969C81.2103 31.6989 82.2893 30.6029 83.5783 30.6029C84.8513 30.6029 85.8493 31.6989 85.8493 33.1969C85.8493 34.6789 84.8513 35.7579 83.5783 35.7579ZM85.7203 29.8779H85.6563C85.2373 29.3789 84.4323 28.9279 83.4173 28.9279C81.2903 28.9279 79.3413 30.7959 79.3413 33.1969C79.3413 35.5809 81.2903 37.4339 83.4173 37.4339C84.4323 37.4339 85.2373 36.9829 85.6563 36.4669H85.7203V37.0789C85.7203 38.7069 84.8513 39.5769 83.4493 39.5769C82.3053 39.5769 81.5963 38.7549 81.3063 38.0619L79.6793 38.7389C80.1463 39.8669 81.3873 41.2519 83.4493 41.2519C85.6403 41.2519 87.4933 39.9629 87.4933 36.8219V29.1849H85.7203V29.8779ZM88.7823 37.1759H90.6513V24.6739H88.7823V37.1759ZM93.4053 33.0519C93.3573 31.4089 94.6783 30.5709 95.6283 30.5709C96.3703 30.5709 96.9983 30.9409 97.2073 31.4729L93.4053 33.0519ZM99.2053 31.6339C98.8513 30.6839 97.7713 28.9279 95.5643 28.9279C93.3733 28.9279 91.5533 30.6509 91.5533 33.1809C91.5533 35.5649 93.3573 37.4339 95.7733 37.4339C97.7233 37.4339 98.8513 36.2419 99.3183 35.5489L97.8683 34.5819C97.3853 35.2909 96.7243 35.7579 95.7733 35.7579C94.8233 35.7579 94.1463 35.3229 93.7113 34.4699L99.3983 32.1179L99.2053 31.6339ZM53.8973 30.2329V32.0369H58.2143C58.0853 33.0519 57.7473 33.7929 57.2323 34.3089C56.6033 34.9369 55.6203 35.6289 53.8973 35.6289C51.2393 35.6289 49.1603 33.4869 49.1603 30.8289C49.1603 28.1699 51.2393 26.0279 53.8973 26.0279C55.3313 26.0279 56.3783 26.5919 57.1513 27.3169L58.4243 26.0439C57.3443 25.0129 55.9113 24.2229 53.8973 24.2229C50.2563 24.2229 47.1953 27.1879 47.1953 30.8289C47.1953 34.4699 50.2563 37.4339 53.8973 37.4339C55.8623 37.4339 57.3443 36.7899 58.5043 35.5809C59.6963 34.3889 60.0673 32.7139 60.0673 31.3599C60.0673 30.9409 60.0353 30.5549 59.9703 30.2329H53.8973ZM64.9763 35.7579C63.6873 35.7579 62.5753 34.6949 62.5753 33.1809C62.5753 31.6499 63.6873 30.6029 64.9763 30.6029C66.2643 30.6029 67.3763 31.6499 67.3763 33.1809C67.3763 34.6949 66.2643 35.7579 64.9763 35.7579ZM64.9763 28.9279C62.6233 28.9279 60.7063 30.7159 60.7063 33.1809C60.7063 35.6289 62.6233 37.4339 64.9763 37.4339C67.3283 37.4339 69.2453 35.6289 69.2453 33.1809C69.2453 30.7159 67.3283 28.9279 64.9763 28.9279ZM74.2893 35.7579C73.0003 35.7579 71.8883 34.6949 71.8883 33.1809C71.8883 31.6499 73.0003 30.6029 74.2893 30.6029C75.5783 30.6029 76.6893 31.6499 76.6893 33.1809C76.6893 34.6949 75.5783 35.7579 74.2893 35.7579ZM74.2893 28.9279C71.9373 28.9279 70.0203 30.7159 70.0203 33.1809C70.0203 35.6289 71.9373 37.4339 74.2893 37.4339C76.6413 37.4339 78.5583 35.6289 78.5583 33.1809C78.5583 30.7159 76.6413 28.9279 74.2893 28.9279Z" fill="#FFFFFE"/>
<path d="M52.6621 19.3835C52.4453 19.6941 52.1421 19.927 51.7524 20.0823C51.3657 20.2346 50.9146 20.3108 50.3989 20.3108C49.8774 20.3108 49.4146 20.1892 49.0103 19.946C48.606 19.7 48.2925 19.3513 48.0698 18.9001C47.8501 18.449 47.7373 17.926 47.7314 17.3313V16.7732C47.7314 15.8093 47.9556 15.0623 48.4038 14.532C48.855 14.0017 49.4878 13.7366 50.3022 13.7366C50.9702 13.7366 51.5078 13.908 51.915 14.2507C52.3223 14.5906 52.5713 15.074 52.6621 15.7009H51.8184C51.6602 14.8542 51.1562 14.4309 50.3066 14.4309C49.7412 14.4309 49.312 14.6301 49.019 15.0286C48.729 15.4241 48.5825 15.9983 48.5796 16.7512V17.2742C48.5796 17.9919 48.7437 18.5632 49.0718 18.988C49.3999 19.4099 49.8438 19.6208 50.4033 19.6208C50.7197 19.6208 50.9966 19.5857 51.2339 19.5154C51.4712 19.4451 51.6675 19.3264 51.8228 19.1594V17.7224H50.3418V17.0369H52.6621V19.3835Z" fill="white"/>
<path d="M57.4195 17.2654H54.6465V19.533H57.8677V20.2229H53.8028V13.8245H57.8237V14.5188H54.6465V16.5754H57.4195V17.2654Z" fill="white"/>
<path d="M63.1568 14.5188H61.1001V20.2229H60.2608V14.5188H58.2085V13.8245H63.1568V14.5188Z" fill="white"/>
<path d="M66.5279 20.2229H65.6842V13.8245H66.5279V20.2229Z" fill="white"/>
<path d="M72.0938 14.5188H70.0372V20.2229H69.1979V14.5188H67.1456V13.8245H72.0938V14.5188Z" fill="white"/>
<path d="M79.4816 17.2302C79.4816 17.8572 79.3761 18.405 79.1652 18.8738C78.9542 19.3396 78.6554 19.6956 78.2687 19.9417C77.882 20.1877 77.4308 20.3108 76.9152 20.3108C76.4113 20.3108 75.9645 20.1877 75.5748 19.9417C75.1852 19.6926 74.882 19.3396 74.6652 18.8826C74.4513 18.4226 74.3414 17.8909 74.3356 17.2874V16.8259C74.3356 16.2107 74.4425 15.6672 74.6564 15.1956C74.8703 14.7239 75.172 14.3635 75.5617 14.1145C75.9542 13.8625 76.4025 13.7366 76.9064 13.7366C77.4191 13.7366 77.8703 13.8611 78.2599 14.1101C78.6525 14.3562 78.9542 14.7151 79.1652 15.1868C79.3761 15.6555 79.4816 16.2019 79.4816 16.8259V17.2302ZM78.6422 16.8171C78.6422 16.0583 78.4899 15.4768 78.1852 15.0725C77.8805 14.6653 77.4542 14.4617 76.9064 14.4617C76.3732 14.4617 75.9528 14.6653 75.6452 15.0725C75.3405 15.4768 75.1837 16.0393 75.1749 16.76V17.2302C75.1749 17.9656 75.3288 18.5442 75.6364 18.9661C75.9469 19.385 76.3732 19.5945 76.9152 19.5945C77.4601 19.5945 77.882 19.3967 78.1808 19.0012C78.4796 18.6028 78.6334 18.033 78.6422 17.2917V16.8171Z" fill="white"/>
<path d="M85.3947 20.2229H84.5465L81.3254 15.2922V20.2229H80.4772V13.8245H81.3254L84.5553 18.7771V13.8245H85.3947V20.2229Z" fill="white"/>
<defs>
<linearGradient id="paint0_linear_134_2046" x1="39.2842" y1="26.223" x2="31.0834" y2="26.223" gradientUnits="userSpaceOnUse">
<stop stop-color="#FFBC00"/>
<stop offset="1" stop-color="#FFDA03"/>
</linearGradient>
<linearGradient id="paint1_linear_134_2046" x1="33.01" y1="30.1937" x2="22.3065" y2="39.0162" gradientUnits="userSpaceOnUse">
<stop stop-color="#E22652"/>
<stop offset="1" stop-color="#FF3A44"/>
</linearGradient>
<linearGradient id="paint2_linear_134_2046" x1="20.516" y1="15.269" x2="27.6523" y2="21.5439" gradientUnits="userSpaceOnUse">
<stop stop-color="#0ED574"/>
<stop offset="1" stop-color="#07F076"/>
</linearGradient>
</defs>
</svg>
