<svg width="106" height="100" viewBox="0 0 106 100" fill="none" xmlns="http://www.w3.org/2000/svg">
<path fill-rule="evenodd" clip-rule="evenodd" d="M52.6316 100C81.6992 100 105.263 77.6142 105.263 50C105.263 22.3858 81.6992 0 52.6316 0C23.564 0 0 22.3858 0 50C0 77.6142 23.564 100 52.6316 100Z" fill="#F7AC2E"/>
<path d="M61.4211 38C63.0461 38 64.4211 39.375 64.4211 41V49C64.4211 50.6875 63.0461 52 61.4211 52H53.4211C51.7336 52 50.4211 50.6875 50.4211 49V34C50.4211 28.5 54.8586 24 60.4211 24H60.9211C61.7336 24 62.4211 24.6875 62.4211 25.5V28.5C62.4211 29.375 61.7336 30 60.9211 30H60.4211C58.1711 30 56.4211 31.8125 56.4211 34V38H61.4211ZM43.4211 38C45.0461 38 46.4211 39.375 46.4211 41V49C46.4211 50.6875 45.0461 52 43.4211 52H35.4211C33.7336 52 32.4211 50.6875 32.4211 49V34C32.4211 28.5 36.8586 24 42.4211 24H42.9211C43.7336 24 44.4211 24.6875 44.4211 25.5V28.5C44.4211 29.375 43.7336 30 42.9211 30H42.4211C40.1711 30 38.4211 31.8125 38.4211 34V38H43.4211Z" fill="white"/>
</svg>
